<svg width="500" height="500" viewBox="0 0 500 500" fill="none" xmlns="http://www.w3.org/2000/svg">
<g clip-path="url(#clip0_59_58)">
<path d="M364.261 85.7154C325.252 58.4013 277.778 45.9023 230.376 50.4665C182.975 55.0308 138.758 76.3587 105.678 110.614C72.5976 144.87 52.8258 189.804 49.9186 237.336C47.0115 284.868 61.1597 331.877 89.8185 369.909C118.477 407.94 159.766 434.498 206.258 444.805C252.75 455.112 301.393 448.492 343.44 426.135C385.486 403.779 418.176 367.153 435.629 322.846C453.082 278.539 454.153 229.458 438.649 184.432" stroke="url(#paint0_linear_59_58)" stroke-width="64" stroke-linecap="round"/>
<path d="M183.743 220.163C199.095 220.163 208.431 230.983 208.431 249.147V249.225C208.431 267.428 199.017 278.561 183.86 278.561C172.22 278.561 163.509 271.803 161.907 262.819L161.829 262.506H175.852L175.97 262.78C177.22 265.514 179.876 267.545 183.86 267.545C190.931 267.545 194.212 260.905 194.72 251.959C194.759 251.061 194.798 250.124 194.798 249.303H194.524C192.298 254.655 186.907 258.366 179.29 258.366C168.313 258.366 161.126 250.749 161.126 240.28V240.202C161.126 228.444 170.735 220.163 183.743 220.163ZM183.86 248.327C188.977 248.327 192.962 244.811 192.962 239.811V239.772C192.962 234.889 189.017 231.217 183.977 231.217C178.977 231.217 174.915 234.889 174.915 239.655V239.733C174.915 244.811 178.821 248.327 183.86 248.327ZM238.743 278.561C223.743 278.561 214.563 267.35 214.563 249.381V249.303C214.563 231.334 223.743 220.163 238.743 220.163C253.743 220.163 262.884 231.334 262.884 249.303V249.381C262.884 267.35 253.743 278.561 238.743 278.561ZM238.743 267.35C244.954 267.35 248.392 260.827 248.392 249.381V249.303C248.392 237.858 244.954 231.374 238.743 231.374C232.532 231.374 229.056 237.858 229.056 249.303V249.381C229.056 260.827 232.532 267.35 238.743 267.35ZM283.04 250.827C274.407 250.827 269.095 245.045 269.095 235.749V235.709C269.095 226.452 274.407 220.631 283.04 220.631C291.673 220.631 296.946 226.452 296.946 235.709V235.749C296.946 245.045 291.673 250.827 283.04 250.827ZM290.618 277.545H280.657L316.048 221.178H325.931L290.618 277.545ZM283.04 243.405C285.813 243.405 287.337 240.788 287.337 235.788V235.749C287.337 230.709 285.813 228.131 283.04 228.131C280.227 228.131 278.704 230.709 278.704 235.749V235.788C278.704 240.788 280.227 243.405 283.04 243.405ZM323.626 278.092C314.993 278.092 309.642 272.272 309.642 262.975V262.936C309.642 253.678 314.993 247.897 323.626 247.897C332.259 247.897 337.532 253.678 337.532 262.936V262.975C337.532 272.272 332.259 278.092 323.626 278.092ZM323.626 270.631C326.399 270.631 327.884 268.014 327.884 263.014V262.975C327.884 257.975 326.399 255.358 323.626 255.358C320.813 255.358 319.29 257.975 319.29 262.975V263.014C319.29 268.014 320.813 270.631 323.626 270.631Z" fill="white"/>
</g>
<defs>
<linearGradient id="paint0_linear_59_58" x1="249.629" y1="5.44925" x2="249.462" y2="493.642" gradientUnits="userSpaceOnUse">
<stop stop-color="#276ADF"/>
<stop offset="0.482599" stop-color="#836DD0"/>
<stop offset="1" stop-color="#0F1217"/>
</linearGradient>
<clipPath id="clip0_59_58">
<rect width="500" height="500" fill="white"/>
</clipPath>
</defs>
</svg>
