<svg width="500" height="500" viewBox="0 0 500 500" fill="none" xmlns="http://www.w3.org/2000/svg">
<g clip-path="url(#clip0_59_58)">
<path d="M364.261 85.7154C329.663 61.4899 288.285 48.8391 246.055 49.5762C203.826 50.3134 162.914 64.4005 129.183 89.8187C95.4515 115.237 70.6332 150.681 58.2846 191.071C45.9361 231.462 46.6912 274.725 60.4419 314.659C74.1925 354.594 100.233 389.151 134.83 413.376C169.428 437.602 210.807 450.252 253.036 449.515C295.266 448.778 336.178 434.691 369.909 409.273C403.64 383.855 428.458 348.41 440.807 308.02" stroke="url(#paint0_linear_59_58)" stroke-width="64" stroke-linecap="round"/>
<path d="M184.759 278.561C170.54 278.561 160.852 271.881 160.852 262.077V261.999C160.852 254.538 166.595 249.303 174.329 247.975V247.702C167.649 246.217 162.923 241.491 162.923 235.436V235.358C162.923 226.569 171.79 220.163 184.759 220.163C197.727 220.163 206.595 226.569 206.595 235.358V235.436C206.595 241.491 201.907 246.217 195.227 247.702V247.975C202.962 249.303 208.665 254.538 208.665 261.999V262.077C208.665 271.881 198.977 278.561 184.759 278.561ZM184.759 243.639C189.29 243.639 192.493 240.866 192.493 236.803V236.725C192.493 232.741 189.251 230.006 184.759 230.006C180.306 230.006 177.063 232.741 177.063 236.725V236.803C177.063 240.866 180.227 243.639 184.759 243.639ZM184.759 268.678C190.071 268.678 193.743 265.514 193.743 261.1V261.022C193.743 256.647 190.149 253.444 184.759 253.444C179.407 253.444 175.774 256.647 175.774 261.022V261.1C175.774 265.514 179.485 268.678 184.759 268.678ZM238.743 278.561C223.743 278.561 214.563 267.35 214.563 249.381V249.303C214.563 231.334 223.743 220.163 238.743 220.163C253.743 220.163 262.884 231.334 262.884 249.303V249.381C262.884 267.35 253.743 278.561 238.743 278.561ZM238.743 267.35C244.954 267.35 248.392 260.827 248.392 249.381V249.303C248.392 237.858 244.954 231.374 238.743 231.374C232.532 231.374 229.056 237.858 229.056 249.303V249.381C229.056 260.827 232.532 267.35 238.743 267.35ZM283.04 250.827C274.407 250.827 269.095 245.045 269.095 235.749V235.709C269.095 226.452 274.407 220.631 283.04 220.631C291.673 220.631 296.946 226.452 296.946 235.709V235.749C296.946 245.045 291.673 250.827 283.04 250.827ZM290.618 277.545H280.657L316.048 221.178H325.931L290.618 277.545ZM283.04 243.405C285.813 243.405 287.337 240.788 287.337 235.788V235.749C287.337 230.709 285.813 228.131 283.04 228.131C280.227 228.131 278.704 230.709 278.704 235.749V235.788C278.704 240.788 280.227 243.405 283.04 243.405ZM323.626 278.092C314.993 278.092 309.642 272.272 309.642 262.975V262.936C309.642 253.678 314.993 247.897 323.626 247.897C332.259 247.897 337.532 253.678 337.532 262.936V262.975C337.532 272.272 332.259 278.092 323.626 278.092ZM323.626 270.631C326.399 270.631 327.884 268.014 327.884 263.014V262.975C327.884 257.975 326.399 255.358 323.626 255.358C320.813 255.358 319.29 257.975 319.29 262.975V263.014C319.29 268.014 320.813 270.631 323.626 270.631Z" fill="white"/>
</g>
<defs>
<linearGradient id="paint0_linear_59_58" x1="249.629" y1="5.44925" x2="249.462" y2="493.642" gradientUnits="userSpaceOnUse">
<stop stop-color="#276ADF"/>
<stop offset="0.482599" stop-color="#836DD0"/>
<stop offset="1" stop-color="#0F1217"/>
</linearGradient>
<clipPath id="clip0_59_58">
<rect width="500" height="500" fill="white"/>
</clipPath>
</defs>
</svg>
