<svg width="776" height="1064" viewBox="0 0 776 1064" fill="none" xmlns="http://www.w3.org/2000/svg">
<g clip-path="url(#clip0_60_69)">
<g filter="url(#filter0_f_60_69)">
<path d="M801 965.998C516.614 966.948 541.731 646.7 589.837 486.458L801 337L801 486.458L801 965.998Z" fill="#082455" fill-opacity="0.7"/>
</g>
<g filter="url(#filter1_f_60_69)">
<path d="M681.654 843.018C592.557 911.601 533.216 1008.22 514.682 1047.96L278 1001.14L386.617 452L757.048 525.269C769.04 602.609 770.752 774.434 681.654 843.018Z" fill="#0F1217"/>
</g>
<g filter="url(#filter2_f_60_69)">
<ellipse cx="534" cy="495" rx="146" ry="184" transform="rotate(-180 534 495)" fill="#2E2259"/>
</g>
</g>
<defs>
<filter id="filter0_f_60_69" x="410" y="187" width="541" height="929" filterUnits="userSpaceOnUse" color-interpolation-filters="sRGB">
<feFlood flood-opacity="0" result="BackgroundImageFix"/>
<feBlend mode="normal" in="SourceGraphic" in2="BackgroundImageFix" result="shape"/>
<feGaussianBlur stdDeviation="75" result="effect1_foregroundBlur_60_69"/>
</filter>
<filter id="filter1_f_60_69" x="-22" y="152" width="1084.94" height="1195.96" filterUnits="userSpaceOnUse" color-interpolation-filters="sRGB">
<feFlood flood-opacity="0" result="BackgroundImageFix"/>
<feBlend mode="normal" in="SourceGraphic" in2="BackgroundImageFix" result="shape"/>
<feGaussianBlur stdDeviation="150" result="effect1_foregroundBlur_60_69"/>
</filter>
<filter id="filter2_f_60_69" x="88" y="11" width="892" height="968" filterUnits="userSpaceOnUse" color-interpolation-filters="sRGB">
<feFlood flood-opacity="0" result="BackgroundImageFix"/>
<feBlend mode="normal" in="SourceGraphic" in2="BackgroundImageFix" result="shape"/>
<feGaussianBlur stdDeviation="150" result="effect1_foregroundBlur_60_69"/>
</filter>
<clipPath id="clip0_60_69">
<rect width="776" height="1064" fill="white" transform="matrix(-1 0 0 -1 776 1064)"/>
</clipPath>
</defs>
</svg>
