<svg width="200" height="146" viewBox="0 0 200 146" fill="none" xmlns="http://www.w3.org/2000/svg">
<path d="M28.0246 109.899C31.9955 114.433 36.3888 118.502 41.2046 122.107C48.7521 127.739 56.9614 132.133 65.8326 135.287C66.4665 135.498 66.4665 135.626 66.0865 136.132C63.8898 139.032 61.6931 141.961 59.4965 144.918C59.2432 145.312 58.877 145.481 58.398 145.425C53.3569 145.171 48.4003 144.467 43.5282 143.312C33.1363 140.904 23.378 136.934 14.5068 130.977C9.21232 127.429 4.46699 123.275 0.270794 118.515C0.0451375 118.262 -0.0394868 117.966 0.0169207 117.628C0.326669 112.981 0.734871 108.32 1.24153 103.645C1.74818 98.7447 2.39593 93.8726 3.18477 89.0287C5.67722 73.8633 9.31014 58.9934 14.6751 44.5462C17.8434 36.0974 21.434 27.8599 26.0386 20.0871C26.7986 18.7916 27.7983 17.7074 29.0378 16.8344C38.1625 10.4415 48.0897 5.71027 58.8195 2.64052C63.1565 1.37324 67.5781 0.500209 72.0841 0.0214346C72.5344 -0.0637487 72.8441 0.104964 73.0134 0.527567C73.52 1.65402 74.0692 2.75233 74.6609 3.82249C74.9148 4.2871 74.9148 4.45634 74.3224 4.58248C68.9152 5.79345 63.6348 7.48319 58.4812 9.6517C50.4971 13.0312 43.2735 17.5935 36.5991 23.1274C35.3599 24.1975 34.1207 25.2677 32.8815 26.3378C32.7537 26.4656 32.543 26.5486 32.543 26.761C32.8384 26.8408 33.0507 26.6332 33.2615 26.5071C39.6404 23.2965 46.0614 20.1283 52.7358 17.5514C60.4523 14.5099 68.4082 12.2991 76.6035 10.9191C86.1927 9.31387 95.8666 8.84925 105.54 9.18726C118.551 9.60876 131.224 11.764 143.517 16.1151C151.544 18.9877 159.19 22.6629 166.751 26.5492C166.977 26.662 167.202 26.7605 167.427 26.8446C167.507 26.8925 167.596 26.9724 167.637 26.8446C167.637 26.8127 167.595 26.7701 167.51 26.7169C165.369 24.7455 163.145 22.8445 160.835 21.0139C152.978 14.6773 144.107 10.1996 134.518 7.11577C131.56 6.1578 128.575 5.29882 125.562 4.53884C125.139 4.45897 125.054 4.32809 125.266 3.9481C125.858 2.87795 126.393 1.79369 126.872 0.69533C127.167 0.104589 127.506 -0.0231486 128.139 0.0199556C131.66 0.386111 135.138 0.991604 138.574 1.83643C150.782 4.92027 161.85 10.4118 172.073 17.6355C172.523 17.974 172.903 18.3822 173.213 18.8601C176.677 24.4363 179.507 30.3504 182.084 36.3912C185.942 45.5721 189.124 54.9643 191.631 64.5677C193.996 73.636 195.869 82.7887 197.249 92.026C198.291 98.9822 199.094 105.952 199.657 112.937C199.77 114.486 199.883 116.034 199.996 117.583C200.028 118.006 199.886 118.372 199.572 118.682C191.8 127.426 182.379 133.89 171.607 138.452C164.848 141.268 157.85 143.268 150.612 144.45C147.599 144.986 144.557 145.31 141.488 145.423C141.094 145.476 140.784 145.335 140.558 145C138.333 141.986 136.081 139.001 133.799 136.044C133.419 135.538 133.63 135.453 134.095 135.284C142.572 132.299 150.457 128.159 157.751 122.864C162.961 119.062 167.707 114.739 171.987 109.895C172.04 109.842 172.097 109.772 172.156 109.685C172.21 109.653 172.28 109.637 172.367 109.637H172.319C172.287 109.605 172.245 109.578 172.192 109.557C172.064 109.605 172.192 109.637 172.144 109.685C171.974 109.515 171.933 109.685 171.848 109.812C170.074 111.052 168.272 112.277 166.441 113.488C158.358 118.838 149.699 122.978 140.461 125.907C134.181 127.879 127.802 129.343 121.325 130.301C111.806 131.652 102.245 132.089 92.6416 131.61C80.0107 131.061 67.6756 128.948 55.7628 124.64C46.1877 121.204 37.2884 116.473 29.065 110.446C28.7552 110.22 28.4455 110.009 28.1358 109.812C28.0559 109.684 27.9666 109.517 27.7973 109.684C27.7973 109.636 27.9251 109.604 27.7973 109.556C27.744 109.588 27.6877 109.615 27.6281 109.636C27.6813 109.636 27.7516 109.652 27.8389 109.684C27.8921 109.769 27.9485 109.84 28.008 109.895L28.0246 109.899ZM54.5535 81.5532C54.5535 82.5953 54.6099 83.5387 54.7227 84.3835C55.3566 89.1992 57.3418 93.2546 61.0592 96.4652C66.8889 101.492 75.5487 101.07 80.9136 95.536C83.8426 92.4945 85.5746 88.8756 86.1097 84.6794C86.9543 78.3006 85.3066 72.64 80.7447 67.9509C74.9997 62.1635 65.6638 62.248 60.0032 68.1201C56.328 71.9221 54.6382 76.5261 54.5535 81.5532ZM145.462 82.524C145.462 77.1169 144.025 72.8924 141.068 69.3018C138.111 65.711 134.31 63.6833 129.62 63.641C124.931 63.641 121.13 65.6687 118.088 69.2172C115.694 72.0616 114.286 75.3425 113.864 79.0599C113.06 85.9035 114.877 91.8598 120.2 96.4644C125.945 101.491 134.563 101.069 139.928 95.5767C143.688 91.7748 145.377 87.1286 145.462 82.524ZM32.4602 26.8047C32.4602 26.7728 32.4442 26.7568 32.4122 26.7568C32.3803 26.7887 32.3643 26.8153 32.3643 26.8366C32.3643 26.8686 32.3803 26.8846 32.4122 26.8846C32.4442 26.8526 32.4602 26.826 32.4602 26.8047Z" fill="white"/>
</svg>
