<svg width="200" height="247" viewBox="0 0 200 247" fill="none" xmlns="http://www.w3.org/2000/svg">
<path d="M143.643 218.859C143.643 218.894 143.643 218.894 143.643 218.859C143.643 204.581 143.643 190.427 143.643 176.397C143.643 170.823 142.853 165.341 140.902 160.044C139.415 156.096 137.278 152.565 133.887 149.406C138.765 148.57 143.364 147.873 147.87 146.944C154.746 145.581 161.328 143.335 167.615 140.207C179.647 134.168 188.66 125.155 193.584 112.565C200.46 95.0975 202.179 77.1185 196.929 58.8144C194.932 51.9388 191.447 45.7599 186.802 40.3245C185.732 39.0708 185.594 38.1411 186.104 36.5615C190.007 24.7149 188.288 13.1472 184.014 1.71863C183.503 0.27883 182.527 0.185769 181.366 0.185769C176.07 0.0979783 171.099 1.48686 166.174 3.25203C158.974 5.90004 152.284 9.5236 145.826 13.6583C144.387 14.5415 143.132 14.8663 141.413 14.401C121.483 9.19771 101.367 9.10483 81.3438 13.0543C74.2823 14.4484 68.568 14.1236 62.3893 9.98803C54.9563 5.01719 46.5009 1.76516 37.4883 0.417895C36.0327 0.169733 34.8712 0.0304349 34.004 0L31.2631 1.02191C30.566 1.81205 30.055 3.25185 29.3583 5.48179C26.0444 16.043 25.8431 26.6507 28.7543 37.3048C29.1722 38.8851 28.9861 39.9064 27.9642 41.1143C19.1373 51.4742 15.0955 63.5531 14.8632 77.0722C14.7227 87.8036 15.7464 98.3958 19.1373 108.617C25.92 129.058 40.6469 140.765 60.8558 146.386C67.2204 148.151 73.6779 149.313 80.7858 150.103C78.7882 152.24 77.1157 154.051 75.8613 156.235C73.9101 159.673 72.7023 163.327 72.2378 167.199C72.0973 168.779 71.4476 169.475 70.0542 170.033C53.4225 176.769 38.7421 172.123 29.1255 157.025C24.5262 149.87 18.3475 144.992 9.84581 143.273C7.24415 142.763 4.59614 142.715 2.04102 143.646C-0.188924 144.451 -0.5916 145.829 0.832986 147.78C1.8865 149.143 3.15634 150.273 4.6425 151.172C12.9582 156.236 18.2079 163.901 21.9245 172.635C27.5457 186.061 37.9987 192.333 51.9822 193.448C58.3005 194.004 64.6186 193.307 70.9367 191.867C70.9367 200.601 70.7962 210.311 70.7962 218.906C70.7962 218.906 71.2141 246.036 106.94 246.036C142.665 246.036 143.641 218.859 143.641 218.859L143.643 218.859Z" fill="white"/>
</svg>
