<svg width="1000" height="1441" viewBox="0 0 1000 1441" fill="none" xmlns="http://www.w3.org/2000/svg">
<g opacity="0.2">
<path d="M991.192 1340.06C991.192 1284.37 770.533 1239.21 498.332 1239.21C226.135 1239.21 5.47142 1284.37 5.47142 1340.06C5.47142 1395.76 226.135 1440.91 498.332 1440.91C770.533 1440.91 991.192 1395.76 991.192 1340.06Z" fill="#000072"/>
</g>
<path d="M214.354 1062.16C170.385 1083.21 135.99 1114.31 119.233 1163.97L232.382 1280.93L214.354 1062.16Z" fill="#4D5B6B"/>
<path d="M232.382 1289.82C230.021 1289.82 227.706 1288.88 225.99 1287.11L112.841 1170.16C110.526 1167.76 109.745 1164.28 110.807 1161.13C126.856 1113.57 159.471 1078.57 210.513 1054.14C213.151 1052.88 216.243 1052.99 218.78 1054.45C221.318 1055.91 222.975 1058.52 223.216 1061.43L241.244 1280.2C241.553 1283.94 239.473 1287.48 236.05 1289.02C234.875 1289.56 233.622 1289.82 232.382 1289.82ZM129.457 1161.75L221.477 1256.87L206.582 1076.12C168.469 1096.99 143.136 1125.13 129.457 1161.75Z" fill="#000072"/>
<path d="M35.2261 1307.72C-4.36215 1250.74 1.15389 1178.42 47.552 1146.18C93.9457 1113.95 163.647 1134.01 203.236 1190.99C242.828 1247.97 237.308 1320.3 190.914 1352.53C144.521 1384.76 74.8189 1364.7 35.2261 1307.72Z" fill="#5F5F82"/>
<g opacity="0.6">
<path d="M40.0521 1165.06C86.4457 1132.82 156.147 1152.89 195.736 1209.87C220.624 1245.69 227.674 1287.56 217.963 1321.74C237.249 1285.12 232.936 1233.74 203.236 1190.99C163.647 1134.01 93.9457 1113.95 47.552 1146.18C30.3184 1158.15 18.7416 1175.66 13.0031 1195.85C19.4226 1183.66 28.4616 1173.11 40.0521 1165.06Z" fill="white"/>
</g>
<g opacity="0.3">
<path d="M202.373 1289.06C155.975 1321.3 86.2732 1301.23 46.685 1244.25C31.7577 1222.77 23.2498 1199.11 20.9208 1176.23C1.17212 1212.89 5.32162 1264.68 35.2262 1307.72C74.8144 1364.7 144.521 1384.76 190.914 1352.53C219.816 1332.45 232.85 1296.81 229 1259.01C222.603 1270.88 213.718 1281.18 202.373 1289.06Z" fill="#000072"/>
</g>
<path d="M140.48 1376.85C129.92 1376.85 119.038 1375.28 108.06 1372.13C76.694 1363.1 48.2376 1342.03 27.926 1312.8C-14.3999 1251.88 -7.87143 1173.86 42.4765 1138.88C67.1556 1121.74 98.3813 1117.37 130.406 1126.59C161.772 1135.61 190.229 1156.69 210.54 1185.92C230.852 1215.15 240.667 1249.17 238.184 1281.72C235.651 1314.94 220.664 1342.69 195.985 1359.83C179.769 1371.1 160.724 1376.85 140.48 1376.85ZM98.0635 1139.67C81.3837 1139.67 65.7981 1144.33 52.6232 1153.49C10.3292 1182.87 5.80286 1249.78 42.531 1302.64C60.5136 1328.53 85.5332 1347.14 112.977 1355.04C139.763 1362.74 165.64 1359.26 185.843 1345.23C206.041 1331.19 218.335 1308.16 220.456 1280.37C222.626 1251.89 213.918 1221.95 195.935 1196.07C177.953 1170.18 152.933 1151.57 125.485 1143.67C116.169 1141 106.962 1139.67 98.0635 1139.67Z" fill="#000072"/>
<path d="M179.251 1317.42C199.127 1297.55 199.826 1266.02 180.808 1247C161.786 1227.98 130.256 1228.68 110.38 1248.55C90.5044 1268.43 89.8098 1299.96 108.828 1318.97C127.845 1337.99 159.375 1337.3 179.251 1317.42Z" fill="white"/>
<path d="M38.5676 1280.81C31.2402 1270.26 31.667 1257.29 39.521 1251.83C47.3751 1246.37 59.6829 1250.5 67.0104 1261.05C74.3378 1271.59 73.9111 1284.57 66.057 1290.02C58.2029 1295.48 45.8951 1291.35 38.5676 1280.81Z" fill="white"/>
<path d="M57.9303 1220.2C50.5983 1209.65 51.0251 1196.68 58.8792 1191.22C66.7378 1185.76 79.0456 1189.89 86.3731 1200.44C93.7005 1210.98 93.2738 1223.96 85.4197 1229.42C77.5656 1234.87 65.2578 1230.75 57.9303 1220.2Z" fill="white"/>
<path d="M119.528 1200.38C112.201 1189.83 112.628 1176.86 120.482 1171.4C128.336 1165.94 140.644 1170.07 147.976 1180.62C155.303 1191.17 154.876 1204.14 147.022 1209.59C139.168 1215.05 126.86 1210.93 119.528 1200.38Z" fill="white"/>
<path d="M785.65 1062.16C829.615 1083.21 864.014 1114.31 880.771 1163.97L767.622 1280.93L785.65 1062.16Z" fill="#4D5B6B"/>
<path d="M767.618 1289.82C766.379 1289.82 765.13 1289.56 763.95 1289.02C760.527 1287.48 758.452 1283.94 758.761 1280.2L776.789 1061.43C777.029 1058.52 778.686 1055.91 781.22 1054.45C783.757 1052.99 786.849 1052.88 789.487 1054.14C840.529 1078.57 873.144 1113.57 889.193 1161.13C890.26 1164.28 889.474 1167.76 887.159 1170.16L774.01 1287.11C772.299 1288.88 769.979 1289.82 767.618 1289.82ZM793.418 1076.12L778.523 1256.87L870.547 1161.75C856.869 1125.13 831.536 1096.99 793.418 1076.12Z" fill="#000072"/>
<path d="M964.774 1307.72C1004.36 1250.74 998.846 1178.42 952.452 1146.18C906.059 1113.95 836.352 1134.01 796.764 1190.99C757.176 1247.97 762.692 1320.3 809.086 1352.53C855.479 1384.76 925.185 1364.7 964.774 1307.72Z" fill="#5F5F82"/>
<g opacity="0.6">
<path d="M959.952 1165.06C913.559 1132.82 843.852 1152.89 804.264 1209.87C779.376 1245.69 772.326 1287.56 782.037 1321.74C762.751 1285.12 767.064 1233.74 796.764 1190.99C836.352 1134.01 906.059 1113.95 952.452 1146.18C969.681 1158.15 981.263 1175.66 986.997 1195.85C980.577 1183.66 971.538 1173.11 959.952 1165.06Z" fill="white"/>
</g>
<g opacity="0.3">
<path d="M797.631 1289.06C844.025 1321.3 913.727 1301.23 953.319 1244.25C968.242 1222.77 976.75 1199.11 979.079 1176.23C998.828 1212.89 994.678 1264.68 964.774 1307.72C925.185 1364.7 855.479 1384.76 809.086 1352.53C780.184 1332.45 767.155 1296.81 771.005 1259.01C777.397 1270.88 786.281 1281.18 797.631 1289.06Z" fill="#000072"/>
</g>
<path d="M859.524 1376.85C839.276 1376.85 820.231 1371.1 804.014 1359.83C779.335 1342.69 764.349 1314.94 761.816 1281.72C759.332 1249.17 769.152 1215.15 789.464 1185.92C809.771 1156.69 838.232 1135.61 869.598 1126.59C901.623 1117.37 932.849 1121.73 957.523 1138.88C1007.87 1173.86 1014.4 1251.88 972.074 1312.8C951.767 1342.03 923.306 1363.1 891.944 1372.13C880.966 1375.28 870.08 1376.85 859.524 1376.85ZM901.936 1139.67C893.043 1139.67 883.836 1140.99 874.515 1143.67C847.071 1151.57 822.052 1170.18 804.064 1196.07C786.082 1221.95 777.374 1251.89 779.549 1280.37C781.669 1308.16 793.958 1331.19 814.161 1345.23C834.359 1359.26 860.242 1362.74 887.023 1355.04C914.467 1347.14 939.486 1328.53 957.473 1302.64C994.197 1249.78 989.671 1182.87 947.381 1153.49C934.206 1144.33 918.616 1139.67 901.936 1139.67Z" fill="#000072"/>
<path d="M820.749 1317.42C800.873 1297.55 800.178 1266.02 819.196 1247C838.214 1227.98 869.744 1228.68 889.619 1248.55C909.495 1268.43 910.19 1299.96 891.172 1318.97C872.154 1337.99 840.625 1337.3 820.749 1317.42Z" fill="white"/>
<path d="M961.432 1280.81C968.764 1270.26 968.337 1257.29 960.483 1251.83C952.625 1246.37 940.317 1250.5 932.989 1261.05C925.662 1271.59 926.089 1284.57 933.943 1290.02C941.797 1295.48 954.105 1291.35 961.432 1280.81Z" fill="white"/>
<path d="M942.074 1220.2C949.401 1209.65 948.975 1196.68 941.121 1191.22C933.266 1185.76 920.959 1189.89 913.631 1200.44C906.304 1210.98 906.726 1223.96 914.585 1229.42C922.439 1234.87 934.746 1230.75 942.074 1220.2Z" fill="white"/>
<path d="M880.472 1200.38C887.799 1189.83 887.372 1176.86 879.518 1171.4C871.664 1165.94 859.356 1170.07 852.029 1180.62C844.701 1191.17 845.128 1204.14 852.982 1209.59C860.836 1215.05 873.144 1210.93 880.472 1200.38Z" fill="white"/>
<path d="M246.165 729.546L241.38 1001.35C238.601 1159.08 373.982 1285.6 530.86 1268.89C533.157 1268.64 535.454 1268.37 537.752 1268.08C671.475 1250.87 769.379 1133.28 765.311 998.519L757.194 729.546H246.165Z" fill="#6E7189"/>
<path d="M503.543 1279.23C436.706 1279.23 371.631 1254.13 321.546 1208.3C263.567 1155.23 231.106 1079.74 232.486 1001.19L237.276 729.387C237.358 724.538 241.316 720.657 246.165 720.657H757.194C761.997 720.657 765.933 724.475 766.079 729.278L774.201 998.251C776.239 1065.79 753.444 1131.44 710.011 1183.1C666.382 1235 605.61 1268.31 538.887 1276.89C536.526 1277.2 534.162 1277.48 531.795 1277.73C522.37 1278.73 512.936 1279.23 503.543 1279.23ZM254.9 738.44L250.269 1001.5C248.975 1074.96 279.334 1145.55 333.554 1195.18C386.917 1244.01 458.493 1267.65 529.916 1260.05C532.149 1259.81 534.382 1259.54 536.612 1259.26C665.91 1242.62 760.404 1130.64 756.422 998.787L748.564 738.44H254.9Z" fill="#000072"/>
<g opacity="0.2">
<path d="M768.222 947.74C765.349 924.16 761.976 900.652 758.102 877.217C756.976 870.407 755.482 863.093 750.579 858.326C750.243 852.261 749.798 846.204 749.072 840.18C746.117 815.623 737.305 789.927 717.129 775.617C708.571 769.543 698.547 765.943 688.6 762.592C580.023 726.028 462.625 711.286 349.953 732.039C323.748 736.864 296.631 744.251 277.377 762.665C261.36 777.987 252.48 799.565 248.68 821.398C246.342 834.809 245.775 848.415 245.879 862.044C241.761 865.59 238.325 869.839 235.968 874.774C229.336 888.657 232.382 905.877 241.162 918.512C249.942 931.142 263.694 939.618 278.149 944.884L287.81 954.032C283.383 936.231 279.86 914.803 292.754 901.755C294.207 900.284 295.805 899.013 297.516 897.919C305.261 892.979 314.986 892.421 323.653 895.458C326.231 896.363 328.78 897.315 331.298 898.314C359.732 909.573 385.936 925.989 414.606 936.631C458.67 952.984 507.951 954.927 553.169 942.097C587.373 932.39 618.844 914.644 652.93 904.529C652.948 904.523 652.966 904.518 652.984 904.515C656.353 903.516 660.03 903.984 662.986 905.886C676.492 914.58 686.798 928.609 690.856 944.262C697.058 968.188 689.635 994.601 673.845 1013.62C689.998 1017.03 706.478 1020.47 722.886 1018.65C739.293 1016.85 755.909 1008.87 763.913 994.429C771.626 980.523 770.146 963.53 768.222 947.74Z" fill="#000072"/>
</g>
<path d="M878.874 1064.28C844.702 1125.51 795.612 1164.89 744.701 1173.79L709.648 1130.8L666.687 1078.16L691.198 1053.9L744.701 1000.96C757.127 969.632 746.821 932.372 726.124 892.389L698.975 820.976L754.684 786.177C773.711 800.06 790.963 814.738 806.326 829.91C857.278 880.199 887.555 935.841 893.788 985.962C894.474 991.36 894.859 996.694 894.968 1001.94C895.441 1023.76 889.502 1045.23 878.874 1064.28Z" fill="#6E7189"/>
<g opacity="0.6">
<path d="M680.125 1073.88L733.624 1020.94C735.268 1016.79 736.502 1012.54 737.383 1008.2L691.198 1053.9L666.687 1078.16L670.76 1083.15L680.125 1073.88Z" fill="white"/>
<path d="M894.969 1001.94C894.86 996.694 894.474 991.36 893.789 985.962C887.555 935.841 857.278 880.199 806.327 829.91C790.963 814.738 773.712 800.06 754.685 786.177L698.975 820.971L702.989 831.527C718.2 822.174 733.412 812.822 748.624 803.47C773.843 821.575 792.13 839.462 804.334 852.751C804.334 852.751 871.797 926.198 882.716 1005.94C883.837 1014.14 883.891 1021.92 883.891 1021.92C884.296 1040.55 880.014 1058.91 872.142 1075.74C874.445 1072.01 876.69 1068.19 878.875 1064.28C889.503 1045.23 895.441 1023.76 894.969 1001.94Z" fill="white"/>
</g>
<path d="M362.579 1009.17L351.415 1022.39H351.393L304.232 1078.18L263.309 1126.56C169.391 1096.91 93.8873 1058.72 79.7454 992.068C74.8605 956.37 85.3341 921.272 105.328 888.984C119.02 866.87 137.167 846.109 157.91 827.359C182.829 804.841 211.499 785.278 240.636 769.933L276.143 827.145L263.309 882.383L253.58 936.549L253.303 938.092C264.012 942.505 274.386 947.05 284.283 951.826C284.323 951.868 284.373 951.889 284.433 951.889C285.591 952.47 286.771 953.024 287.947 953.605C288.932 954.096 289.899 954.568 290.862 955.063C292.169 955.703 293.477 956.388 294.784 957.056C298.017 958.704 301.231 960.438 304.404 962.218C311.219 965.99 317.711 969.913 323.835 974.026C324.952 974.775 326.087 975.524 327.199 976.296C341.427 986.175 353.472 997.016 362.579 1009.17Z" fill="#6E7189"/>
<g opacity="0.6">
<path d="M362.579 1009.16L351.415 1022.39H351.393C313.956 984.626 246.879 954.527 214.881 927.4C238.988 933.357 262.192 941.37 284.283 951.825C284.322 951.868 284.372 951.889 284.433 951.889C285.591 952.47 286.771 953.024 287.947 953.605C288.932 954.095 289.899 954.567 290.862 955.062C292.169 955.702 293.477 956.388 294.784 957.055C298.016 958.703 301.231 960.438 304.404 962.217C310.983 965.926 317.452 969.844 323.835 974.026C324.952 974.775 326.087 975.524 327.199 976.296C341.427 986.175 353.472 997.016 362.579 1009.16Z" fill="white"/>
</g>
<path d="M268.025 883.236L262.06 939.667L256.689 929.875C287.665 942.578 319.018 957.06 345.499 978.457C354.461 985.761 362.897 994.015 370.124 1003.51C372.844 1007.08 372.594 1011.98 369.779 1015.25C345.114 1044.57 295.483 1103.63 270.672 1132.82C268.084 1135.88 263.994 1136.92 260.398 1135.78C221.977 1123.51 183.928 1109.65 148.807 1089.1C99.0989 1060.02 60.237 1016.01 70.6425 954.554C84.621 867.691 163.017 801.753 236.636 762.337C240.641 760.217 245.589 761.616 247.941 765.411C253.879 774.936 259.584 784.601 265.056 794.408C270.459 804.3 275.739 814.233 280.215 824.616C281.264 827.081 280.111 829.933 277.641 830.977C275.652 831.821 273.41 831.226 272.066 829.674C268.366 825.365 264.956 820.88 261.565 816.381C251.5 802.856 242.22 788.792 233.345 774.473L244.645 777.542C223.707 788.678 203.704 801.617 185.04 816.19C132.145 856.832 79.7951 922.452 89.0202 990.092C102.168 1047.17 160.665 1076.85 210.868 1097.71C228.932 1105.04 247.491 1111.4 266.214 1117.36L255.926 1120.33C280.601 1090.98 330.545 1032.26 355.387 1003.08L355.042 1014.82C342.898 998.714 325.964 985.766 307.795 974.838C289.2 963.597 269.02 954.49 248.713 945.706C245.285 943.967 243.641 940.103 244.554 936.526L258.587 881.543C260.121 875.863 268.566 877.343 268.025 883.236Z" fill="#000072"/>
<path d="M250.316 946.128L209.506 926.852C204.285 924.336 207.272 916.396 212.834 917.922L256.304 930.07C268.017 933.929 261.715 950.881 250.316 946.128Z" fill="#000072"/>
<path d="M730.691 890.028C744.533 915.365 757.263 943.485 757.712 973.372C757.821 983.609 756.273 994.142 752.664 1004.1C752.26 1005.27 751.584 1006.24 750.721 1007.04L672.725 1084.24L673.338 1072.73L751.334 1168.38L743.216 1165.35C783.222 1158.15 817.721 1132.3 843.395 1101.26C851.503 1091.31 859.003 1080.79 865.699 1069.8C874.997 1054.96 882.397 1038.76 885.026 1021.44C892.095 971.27 867.502 919.837 838.523 880.072C814.062 846.576 783.123 817.925 749.641 793.109L759.233 793.454L703.524 828.235C693.799 833.973 684.992 819.972 694.444 813.698L750.154 778.913C753.191 776.988 757.018 777.247 759.746 779.262C820.237 824.081 875.202 883.563 896.671 957.487C902.505 979.042 905.574 1001.94 901.946 1024.18C898.959 1043.73 890.737 1062.15 880.341 1078.72C873.218 1090.4 865.277 1101.55 856.606 1112.18C828.563 1146.13 790.409 1174.35 746.172 1182.24C743.008 1182.81 739.934 1181.56 738.05 1179.21L660.054 1083.57C657.248 1080.12 657.584 1075.13 660.667 1072.06L738.663 994.859L736.729 997.788C740.043 990.115 741.85 981.734 742.29 973.077C743.407 945.755 733.156 919.574 721.556 894.749C718.819 888.802 727.322 884.258 730.691 890.028Z" fill="#000072"/>
<path d="M405.681 854.534V930.242H437.238V854.534H405.681Z" fill="white"/>
<path d="M437.238 936.672H405.681C402.131 936.672 399.257 933.793 399.257 930.243V854.535C399.257 850.985 402.131 848.106 405.681 848.106H437.238C440.788 848.106 443.667 850.985 443.667 854.535V930.243C443.667 933.793 440.788 936.672 437.238 936.672ZM412.11 923.814H430.81V860.964H412.11V923.814Z" fill="#000072"/>
<path d="M451.149 948.634C451.149 959.384 438.678 968.096 423.292 968.096C407.91 968.096 395.439 959.384 395.439 948.634C395.439 937.883 407.91 929.171 423.292 929.171C438.678 929.171 451.149 937.883 451.149 948.634Z" fill="#42477F"/>
<path d="M451.149 948.634C451.149 959.384 438.678 968.096 423.292 968.096C407.91 968.096 395.439 959.384 395.439 948.634C395.439 937.883 407.91 929.171 423.292 929.171C438.678 929.171 451.149 937.883 451.149 948.634Z" fill="white"/>
<path d="M423.292 974.526C404.07 974.526 389.011 963.153 389.011 948.634C389.011 934.116 404.07 922.743 423.292 922.743C442.518 922.743 457.577 934.116 457.577 948.634C457.577 963.153 442.518 974.526 423.292 974.526ZM423.292 935.6C411.878 935.6 401.868 941.693 401.868 948.634C401.868 955.576 411.878 961.669 423.292 961.669C434.705 961.669 444.72 955.576 444.72 948.634C444.72 941.693 434.705 935.6 423.292 935.6Z" fill="#000072"/>
<path d="M553.62 854.534V930.242H585.172V854.534H553.62Z" fill="white"/>
<g opacity="0.3">
<path d="M407.352 849.863V925.567H438.904V849.863H407.352Z" fill="#000072"/>
</g>
<g opacity="0.3">
<path d="M555.286 849.863V925.567H586.843V849.863H555.286Z" fill="#000072"/>
</g>
<path d="M585.172 936.672H553.62C550.069 936.672 547.191 933.793 547.191 930.243V854.535C547.191 850.985 550.069 848.106 553.62 848.106H585.172C588.722 848.106 591.601 850.985 591.601 854.535V930.243C591.601 933.793 588.722 936.672 585.172 936.672ZM560.044 923.814H578.744V860.964H560.044V923.814Z" fill="#000072"/>
<path d="M599.083 948.634C599.083 959.384 586.611 968.096 571.23 968.096C555.844 968.096 543.373 959.384 543.373 948.634C543.373 937.883 555.844 929.171 571.23 929.171C586.611 929.171 599.083 937.883 599.083 948.634Z" fill="white"/>
<path d="M571.23 974.526C552.003 974.526 536.944 963.153 536.944 948.634C536.944 934.116 552.003 922.743 571.23 922.743C590.452 922.743 605.511 934.116 605.511 948.634C605.511 963.153 590.452 974.526 571.23 974.526ZM571.23 935.6C559.812 935.6 549.802 941.693 549.802 948.634C549.802 955.576 559.812 961.669 571.23 961.669C582.643 961.669 592.654 955.576 592.654 948.634C592.654 941.693 582.643 935.6 571.23 935.6Z" fill="#000072"/>
<g opacity="0.3">
<path d="M134.747 824.508C135.691 824.444 136.613 824.381 137.553 824.358C137.489 824.467 137.425 824.594 137.339 824.703L134.747 824.508Z" fill="#000072"/>
</g>
<g opacity="0.2">
<path d="M276.143 827.145L263.309 882.383L253.58 936.549C240.68 933.51 227.781 930.461 214.881 927.401C208.217 925.816 200.826 923.714 197.421 917.758C193.671 911.18 196.454 903.04 197.934 895.603C201.511 877.602 196.199 858.062 184.028 844.352C177.041 836.507 167.893 830.659 157.91 827.359C182.829 804.841 211.499 785.278 240.636 769.933L276.143 827.145Z" fill="#000072"/>
</g>
<g opacity="0.2">
<path d="M304.232 1078.18L263.309 1126.56C169.391 1096.91 93.8873 1058.72 79.7454 992.067C74.8605 956.37 85.3341 921.271 105.328 888.983C106.85 887.528 108.392 886.105 109.954 884.716L113.191 884.934C91.572 909.1 95.1948 948.311 113.3 975.224C131.383 1002.11 160.588 1019.19 189.512 1033.83C226.068 1052.34 264.53 1068.6 304.232 1078.18Z" fill="#000072"/>
</g>
<g opacity="0.2">
<path d="M878.874 1064.28C844.702 1125.51 795.612 1164.89 744.701 1173.79L709.648 1130.8C711.124 1127.27 712.667 1123.75 714.188 1120.24C720.726 1105.28 727.045 1090.22 733.174 1075.09C714.683 1084.24 693.772 1088.27 673.265 1085.15C680.379 1075.42 686.376 1064.92 691.198 1053.9L744.701 1000.96C757.127 969.632 746.821 932.372 726.124 892.389L698.975 820.976L754.684 786.177C773.711 800.06 790.963 814.738 806.326 829.91C797.927 839.767 792.139 852.215 789.31 864.9C784.276 887.545 787.063 911.116 789.932 934.147C791.98 950.473 794.037 967.021 793.392 983.365C793.079 991.205 795.09 999.046 799.425 1005.59C799.456 1005.63 799.484 1005.67 799.512 1005.71C808.038 1018.51 822.075 1028.17 837.438 1028.9C854.322 1029.69 870.285 1019.73 880.954 1006.61C886.097 1000.29 890.233 993.289 893.788 985.962C894.474 991.36 894.859 996.694 894.968 1001.94C895.441 1023.76 889.502 1045.23 878.874 1064.28Z" fill="#000072"/>
</g>
<path d="M121.98 416.181C180.209 -31.3067 783.026 -33.4586 853.264 405.435C855.08 416.781 858.557 427.835 860.314 439.194C892.625 648.308 841.673 784.452 527.333 785.487C517.281 785.269 507.198 784.969 497.151 785.369C214.599 796.669 59.5874 691.27 118.62 428.244C119.533 424.176 120.504 420.086 121.98 416.181Z" fill="#EFEFEF"/>
<g opacity="0.6">
<path d="M124.695 463.297C125.607 459.229 126.579 455.138 128.054 451.234C186.283 3.75047 789.101 1.59398 859.338 440.488C860.269 446.308 861.635 452.051 862.984 457.799C862.173 451.664 861.283 445.462 860.314 439.194C858.557 427.835 855.08 416.78 853.264 405.435C783.027 -33.4634 180.209 -31.307 121.98 416.181C120.504 420.085 119.533 424.176 118.62 428.244C103.452 495.816 102.449 552.956 114.071 600.416C109.79 560.583 113.091 514.997 124.695 463.297Z" fill="white"/>
</g>
<g opacity="0.2">
<path d="M527.333 721.274C517.281 721.075 507.198 720.802 497.151 721.165C269.946 729.441 125.24 668.983 107.952 520.468C88.0393 715.89 239.596 794.821 497.151 785.442C507.198 785.078 517.281 785.351 527.333 785.551C810.421 784.697 879.873 684.069 867.288 524.999C855.752 646.424 770.11 720.543 527.333 721.274Z" fill="#000072"/>
</g>
<path d="M451.361 515.628H499.535C509.622 515.628 516.582 524.89 512.719 533.307C506.404 547.077 494.573 555.798 475.768 558.131C455.96 554.731 444.125 546.037 438.286 533.548C434.314 525.049 441.147 515.628 451.361 515.628Z" fill="#000072"/>
<path d="M457.309 796.896C309.738 796.9 205.819 761.902 148.084 692.654C95.9115 630.08 82.4824 540.33 108.169 425.897C109.05 421.961 110.035 417.788 111.511 413.616C125.585 307.409 171.106 218.522 243.21 156.511C308.276 100.551 392.755 69.0214 481.089 67.7275C569.944 66.4609 655.994 95.6708 723.522 150.073C798.417 210.413 846.94 298.129 863.842 403.742C864.673 408.931 865.885 414.093 867.17 419.559C868.536 425.366 869.943 431.367 870.901 437.56C890.301 563.107 877.071 644.704 828.008 702.125C774.337 764.939 675.993 795.711 527.369 796.201C527.278 796.201 527.187 796.201 527.097 796.201L524.105 796.133C515.347 795.933 506.295 795.729 497.582 796.074C483.814 796.622 470.39 796.896 457.309 796.896ZM486.637 89.1106C484.884 89.1106 483.155 89.1242 481.402 89.1515C328.769 91.3851 161.722 193.802 132.603 417.566C132.497 418.389 132.298 419.191 132.004 419.972C130.765 423.245 129.911 426.864 129.076 430.587C104.923 538.188 116.859 621.741 164.542 678.93C222.907 748.936 334.658 781.138 496.724 774.664C506.108 774.287 515.506 774.505 524.595 774.709L527.437 774.773C669.374 774.287 762.356 745.971 811.719 688.205C856.365 635.955 868.087 559.662 849.727 440.829C848.896 435.458 847.639 430.119 846.313 424.462C844.997 418.864 843.635 413.081 842.686 407.129C807.438 186.869 639.396 89.1106 486.637 89.1106Z" fill="#000072"/>
<path d="M475.768 564.56C475.402 564.56 475.039 564.528 474.679 564.465C453.731 560.869 439.53 551.385 432.466 536.272C429.756 530.474 430.178 524.037 433.628 518.616C437.383 512.719 444.011 509.2 451.361 509.2H499.535C506.88 509.2 513.518 512.714 517.295 518.598C520.723 523.937 521.181 530.275 518.562 535.986C511.039 552.393 496.906 561.986 476.558 564.51C476.295 564.544 476.031 564.56 475.768 564.56ZM451.361 522.053C448.429 522.053 445.855 523.351 444.474 525.521C443.862 526.484 442.999 528.45 444.111 530.828C449.259 541.847 459.67 548.657 475.913 551.63C491.236 549.51 501.369 542.632 506.876 530.629C507.861 528.477 507.203 526.674 506.476 525.539C505.073 523.36 502.481 522.053 499.535 522.053H451.361Z" fill="#000072"/>
<path d="M497.551 521.766C497.551 519.156 488.112 517.045 476.467 517.045C464.818 517.045 455.379 519.156 455.379 521.766C455.379 524.372 464.818 526.488 476.467 526.488C488.112 526.488 497.551 524.372 497.551 521.766Z" fill="white"/>
<path d="M187.019 546.682C217.346 244.867 557.01 461.535 353.866 557.328C341.972 562.935 331.266 571.116 322.4 581.358C283.043 626.816 233.072 636.999 203.576 602.541C190.687 587.487 184.994 566.821 187.019 546.682Z" fill="#5F5F82"/>
<path d="M782.119 544.475C751.792 242.66 412.127 459.329 615.271 555.121C627.166 560.728 637.871 568.909 646.738 579.151C686.094 624.61 736.065 634.793 765.561 600.335C778.45 585.28 784.143 564.619 782.119 544.475Z" fill="#5F5F82"/>
<path d="M475.609 596.344C475.564 596.344 475.517 596.343 475.468 596.34C471.918 596.267 469.103 593.325 469.181 589.78L470.039 549.783C470.116 546.232 473.085 543.39 476.603 543.49C480.154 543.568 482.968 546.505 482.891 550.055L482.033 590.052C481.956 593.557 479.096 596.344 475.609 596.344Z" fill="#000072"/>
<path d="M423.65 615.18C443.022 610.718 454.167 591.5 473.63 586.257C475.015 585.798 476.413 585.889 477.679 586.379C484.771 588.844 490.977 592.703 496.547 596.771C502.132 600.852 507.212 605.174 512.283 609.279C514.003 610.631 516.855 613.16 518.979 613.828C527.342 616.86 535.464 610.332 541.815 605.356C542.65 604.652 543.894 604.757 544.598 605.592C545.161 606.264 545.202 607.195 544.771 607.903C542.946 610.872 540.68 613.623 538.079 616.134C529.607 624.624 518.044 626.957 507.847 619.729C501.491 615.698 495.254 611.163 489.288 607.208C483.954 603.694 478.687 600.575 473.262 598.451L477.307 598.573C459.007 603.999 444.552 624.192 423.65 621.073C420.426 620.542 420.408 615.698 423.65 615.18Z" fill="#000072"/>
<path d="M601.134 483.522C601.134 456.169 619.68 433.991 642.561 433.991C665.438 433.991 683.983 456.169 683.983 483.522C683.983 510.88 665.438 533.053 642.561 533.053C619.68 533.053 601.134 510.88 601.134 483.522Z" fill="#000072"/>
<path d="M618.24 487.808C618.24 478.478 622.413 470.915 627.561 470.915C632.709 470.915 636.881 478.478 636.881 487.808C636.881 497.137 632.709 504.701 627.561 504.701C622.413 504.701 618.24 497.137 618.24 487.808Z" fill="white"/>
<path d="M376.23 483.522C376.23 456.169 357.684 433.991 334.803 433.991C311.926 433.991 293.381 456.169 293.381 483.522C293.381 510.88 311.926 533.053 334.803 533.053C357.684 533.053 376.23 510.88 376.23 483.522Z" fill="#000072"/>
<path d="M359.123 487.808C359.123 478.478 354.951 470.915 349.803 470.915C344.654 470.915 340.482 478.478 340.482 487.808C340.482 497.137 344.654 504.701 349.803 504.701C354.951 504.701 359.123 497.137 359.123 487.808Z" fill="white"/>
<path d="M907.416 520.486C907.33 524.127 907.18 527.75 906.967 531.391C633.967 357.729 358.592 345.921 80.2987 531.391C76.5078 463.21 92.0843 396.187 119.51 334.049C133.289 302.81 150.064 272.833 168.877 244.553C209.587 183.291 259.876 130.088 310.015 89.7868C377.251 35.707 444.211 4.8491 487.472 8.92142C609.519 -2.19689 914.571 248.43 907.416 520.486Z" fill="#6E7189"/>
<g opacity="0.6">
<path d="M80.1985 528.749C80.2439 529.629 80.253 530.51 80.2984 531.391C110.28 511.411 140.23 493.732 170.144 478.283C140.198 492.847 110.217 509.654 80.1985 528.749Z" fill="white"/>
<path d="M487.472 8.92158C461.267 6.4564 426.364 16.8211 387.975 37.387C419.159 22.9227 447.302 15.9403 469.308 18.0105C589.984 7.01481 889.533 251.931 889.324 520.427C895.208 524.014 901.087 527.65 906.967 531.391C907.18 527.75 907.33 524.127 907.416 520.486C914.571 248.43 609.519 -2.19672 487.472 8.92158Z" fill="white"/>
</g>
<path d="M906.958 539.963C905.355 539.963 903.757 539.513 902.359 538.623C620.933 359.591 353.589 359.559 85.0521 538.528C82.4961 540.235 79.2182 540.435 76.467 539.059C73.7158 537.683 71.9135 534.941 71.741 531.868C67.4326 454.121 87.0224 373.733 129.97 292.945C175.951 206.445 236.141 143.131 278.535 105.245C355.423 36.5425 436.23 -3.82208 487.436 0.322883C542.605 -4.21705 629.518 39.3981 711.917 113.517C772.358 167.883 823.141 231.987 858.775 298.905C900.756 377.732 919.847 456.114 915.515 531.881C915.343 534.919 913.572 537.634 910.867 539.023C909.636 539.649 908.297 539.963 906.958 539.963ZM488.952 388.111C491.204 388.111 493.456 388.123 495.708 388.147C627.951 389.563 763.546 432.652 898.917 516.237C900.697 385.083 827.364 240.413 700.454 126.261C626.53 59.7688 547.313 17.7245 496.874 17.1207C495.648 17.7926 494.237 18.1785 492.747 18.1785H482.033C480.567 18.1785 479.182 17.8062 477.97 17.1524C431.422 18.0877 358.433 56.836 289.958 118.03C189.943 207.399 86.3278 357.543 88.3481 515.869C219.87 431.068 354.552 388.111 488.952 388.111Z" fill="#000072"/>
<path d="M852.592 347.437L862.966 328.987C970.798 139.118 786.086 -3.4681 647.664 103.139C637.717 110.798 626.312 115.882 614.3 117.88L601.847 119.955C586.152 189.715 704.699 347.437 852.592 347.437Z" fill="#6E7189"/>
<g opacity="0.6">
<path d="M601.847 119.955L605.538 122.688C616.86 131.082 632.137 132.448 644.44 125.58C647.782 123.714 651.005 121.584 654.092 119.205C742.099 51.4287 848.792 84.4023 887.141 166.189C855.924 72.8936 741.232 31.0762 647.664 103.139C637.717 110.797 626.312 115.882 614.3 117.88L601.847 119.955Z" fill="white"/>
</g>
<g opacity="0.3">
<path d="M790.881 72.7075C852.429 114.834 881.852 205.079 822.433 309.701C815.814 321.469 802.857 328.379 789.432 326.926C782.414 326.168 775.481 325.064 768.639 323.653C764.776 322.854 763.064 328.347 766.71 329.845C786.577 338.017 807.597 343.733 829.411 346.148C843.031 347.655 856.251 340.932 862.966 328.987C934.329 203.335 877.557 98.4217 790.881 72.7075Z" fill="#000072"/>
</g>
<path d="M376.738 112.755C376.738 167.543 353.362 215.366 316.979 254.796C271.085 304.544 204.471 340.909 138.065 361.007L125.875 343.501C123.648 340.351 121.526 337.2 119.51 334.049C46.4263 221.305 91.7621 118.861 172.841 84.2166C213.124 66.9648 262.237 66.4972 310.015 89.7871C316.121 92.7653 322.232 96.1521 328.27 99.9202C339.134 106.712 351.265 110.807 363.777 111.747L376.738 112.755Z" fill="#6E7189"/>
<g opacity="0.6">
<path d="M171.974 103.498C212.256 86.2505 261.37 85.7783 309.148 109.068C315.254 112.046 321.365 115.433 327.407 119.206C338.267 125.998 350.398 130.088 362.91 131.032C370.119 131.591 376.407 126.052 376.643 118.825C376.707 116.812 376.738 114.789 376.738 112.755L363.777 111.747C351.265 110.807 339.134 106.712 328.27 99.9202C322.232 96.1521 316.121 92.7653 310.015 89.7871C262.237 66.4972 213.124 66.9648 172.841 84.2166C119.587 106.971 81.7515 158.98 82.7684 223.942C88.7021 168.051 124.105 123.955 171.974 103.498Z" fill="white"/>
</g>
<path d="M600.439 111.501C603.463 111.038 609.882 109.844 612.729 109.395C618.763 108.355 624.578 106.462 630.108 103.792C639.755 99.2071 647.741 91.5528 656.857 85.9732C740.301 30.5042 854.163 59.7687 891.835 154.93C917.459 220.242 897.315 295.269 856.714 349.753C853.359 354.234 846.359 350.347 848.456 345.149C852.755 334.853 857.877 324.865 862.462 315.14C896.625 247.4 900.743 164.641 840.77 110.28C809.771 82.0824 765.634 70.0516 724.498 77.6878C701.33 81.742 679.121 91.5755 659.717 105.154C652.848 110.262 645.525 115.855 637.662 119.505C627.089 124.844 614.867 126.66 603.254 128.408C592.177 129.915 589.307 113.762 600.439 111.501Z" fill="#000072"/>
<path d="M376.089 121.294C372.97 121.108 366.396 120.567 363.459 120.386C349.435 119.433 335.688 114.847 323.776 107.433C320.334 105.295 313.306 101.323 309.706 99.4704C252.213 69.1209 178.883 74.9502 132.077 121.839C83.3949 169.281 80.6846 241.393 109.332 300.481C118.566 320.72 131.141 338.639 141.956 358.297C144.643 363.109 137.929 367.985 134.197 363.704C119.183 346.643 105.368 327.788 95.7027 306.936C50.1898 215.52 79.9446 108.351 179.991 72.0946C224.909 56.1412 275.952 61.8616 317.733 83.8666L325.478 88.0706C331.893 92.034 339.42 96.6829 346.516 99.1753C356.2 102.971 367.136 103.388 377.401 104.201C388.542 105.436 387.435 121.739 376.089 121.294Z" fill="#000072"/>
<g opacity="0.2">
<path d="M907.416 520.35C907.33 524.036 907.185 527.705 906.976 531.391C639.401 355.55 369.493 343.597 96.7287 531.391C93.015 462.357 108.283 394.494 135.164 331.575C63.5282 217.414 107.965 113.69 187.437 78.605L195.686 81.229C161.182 99.5659 140.644 142.414 147.426 181.875C151.48 205.414 165.091 226.634 183.55 240.953C196.044 250.628 210.767 257.161 226.308 259.154C258.482 263.258 290.53 249.633 322.913 250.932C324.844 251.02 326.776 251.15 328.71 251.322C362.438 254.446 393.327 272.565 425.189 285.104C493.524 311.985 568.564 313.524 639.442 331.988C746.38 359.868 842.481 428.425 907.416 520.35Z" fill="#000072"/>
</g>
<path d="M521.626 354.597C501.55 354.769 481.452 354.769 461.377 354.597C247.191 352.735 -41.7892 528.24 80.1717 708.567C100.615 738.78 127.995 761.834 158.785 776.407C260.584 824.553 362.533 861.985 464.591 888.897C482.31 893.546 500.692 893.546 518.412 888.897C620.47 861.985 722.418 824.553 824.217 776.407C855.007 761.834 882.388 738.78 902.831 708.567C1024.79 528.24 735.807 352.735 521.626 354.597ZM830.964 695.755C814.166 717.351 791.648 733.854 766.342 744.246C682.608 778.654 598.787 805.417 514.875 824.639C500.307 827.981 485.18 827.981 470.634 824.639C386.704 805.417 302.883 778.654 219.166 744.246C193.861 733.854 171.32 717.351 154.522 695.755C54.2441 566.893 291.869 441.464 467.973 442.79C484.498 442.92 501.012 442.92 517.513 442.79C693.64 441.464 931.242 566.893 830.964 695.755Z" fill="#6E7189"/>
<g opacity="0.6">
<path d="M461.377 377.455C481.452 377.623 501.55 377.623 521.626 377.455C695.882 375.939 919.642 491.825 931.333 632.196C943.858 481.783 705.257 352.999 521.626 354.597C501.55 354.769 481.452 354.769 461.377 354.597C277.745 352.999 39.1442 481.783 51.6699 632.196C63.3602 491.825 287.12 375.939 461.377 377.455Z" fill="white"/>
</g>
<g opacity="0.2">
<path d="M902.831 665.714C882.388 695.928 855.007 718.981 824.217 733.55C722.418 781.696 620.47 819.132 518.412 846.041C500.692 850.694 482.31 850.694 464.591 846.041C362.533 819.132 260.584 781.696 158.785 733.55C127.995 718.981 100.615 695.928 80.1717 665.714C65.0855 643.41 56.2962 621.182 52.8686 599.35C47.3888 634.552 55.0704 671.457 80.1717 708.567C100.615 738.78 127.995 761.834 158.785 776.407C260.584 824.553 362.533 861.985 464.591 888.898C482.31 893.547 500.692 893.547 518.412 888.898C620.47 861.985 722.418 824.553 824.217 776.407C855.007 761.834 882.388 738.78 902.831 708.567C927.928 671.457 935.614 634.552 930.134 599.35C926.707 621.182 917.917 643.41 902.831 665.714Z" fill="#000072"/>
</g>
<path d="M492.747 835.698C484.662 835.698 476.576 834.8 468.709 832.997C384.475 813.702 299.419 786.508 215.902 752.173C188.635 740.964 165.073 723.276 147.758 701.026C119.492 664.702 114.53 625.286 133.402 587.051C153.941 545.438 202.164 506.349 269.187 476.98C332.288 449.327 404.723 433.732 468.041 434.218C484.435 434.336 501.06 434.336 517.454 434.218C518.389 434.209 519.326 434.205 520.264 434.205C582.87 434.205 654.138 449.736 716.308 476.98C783.331 506.349 831.554 545.438 852.093 587.051C870.965 625.286 866.003 664.697 837.737 701.026C820.422 723.276 796.86 740.964 769.593 752.173C686.076 786.508 601.02 813.702 516.786 832.997C508.923 834.8 500.833 835.698 492.747 835.698ZM465.213 451.347C404.904 451.347 336.142 466.352 276.07 492.679C212.738 520.432 167.529 556.642 148.775 594.637C132.785 627.025 136.993 659.281 161.287 690.498C176.772 710.396 197.91 726.241 222.421 736.319C305.066 770.296 389.219 797.204 472.54 816.286C485.761 819.318 499.739 819.318 512.959 816.286C596.276 797.204 680.428 770.296 763.074 736.319C787.585 726.241 808.727 710.396 824.208 690.502C848.502 659.281 852.71 627.025 836.72 594.637C817.966 556.642 772.757 520.432 709.425 492.679C648.454 465.961 578.48 450.939 517.581 451.356C501.101 451.479 484.389 451.479 467.914 451.356C467.015 451.35 466.115 451.347 465.213 451.347Z" fill="#000072"/>
<path d="M491.499 900.937C481.715 900.937 471.927 899.684 462.412 897.178C360.013 870.188 256.621 832.157 155.112 784.143C122.243 768.594 93.8732 744.119 73.0666 713.361C36.1933 658.836 32.7929 600.021 63.2377 543.267C92.2751 489.142 151.24 438.676 229.268 401.172C303.514 365.493 388.138 345.394 461.454 346.021C481.389 346.193 501.614 346.193 521.549 346.021C594.951 345.367 679.493 365.493 753.73 401.172C831.763 438.676 890.728 489.142 919.765 543.267C950.21 600.021 946.809 658.836 909.931 713.361C889.129 744.119 860.759 768.594 827.89 784.143C726.382 832.157 622.989 870.188 520.591 897.178C511.075 899.684 501.287 900.937 491.499 900.937ZM457.867 363.145C306.519 363.145 133.362 448.814 78.3466 551.371C50.712 602.877 53.7174 654.151 87.2676 703.759C106.353 731.974 132.349 754.411 162.444 768.648C263.004 816.213 365.398 853.881 466.779 880.598C482.95 884.866 500.048 884.866 516.224 880.598C617.605 853.881 720.003 816.213 820.558 768.648C850.658 754.411 876.649 731.974 895.735 703.759C929.285 654.151 932.291 602.877 904.656 551.371C849.223 448.042 673.818 361.765 521.699 363.164C501.664 363.336 481.343 363.336 461.304 363.164C460.16 363.151 459.014 363.145 457.867 363.145Z" fill="#000072"/>
<g opacity="0.3">
<path d="M483.763 13.0709C434.609 10.4468 385.7 43.6156 369.96 90.2499C368.626 94.1996 367.454 98.3309 364.826 101.563C360.495 106.898 352.918 108.696 346.099 107.801C339.284 106.907 333.001 103.747 326.872 100.633C321.71 98.0086 315.713 93.9136 316.475 88.1706C316.848 85.374 318.827 83.0904 320.757 81.0292C360.776 38.263 417.984 12.0631 476.504 9.69775" fill="#000072"/>
</g>
<path d="M752.373 1365.92H243.487C236.708 1365.92 231.165 1360.37 231.165 1353.6V1331.1C231.165 1324.32 236.708 1318.78 243.487 1318.78H752.373C759.146 1318.78 764.69 1324.32 764.69 1331.1V1353.6C764.69 1360.37 759.146 1365.92 752.373 1365.92Z" fill="#C0BECC"/>
<g opacity="0.3">
<path d="M762.551 1324.18V1330.22C762.551 1336.99 757.003 1342.54 750.23 1342.54H241.344C237.126 1342.54 233.39 1340.39 231.165 1337.14V1353.6C231.165 1360.38 236.708 1365.92 243.487 1365.92H752.373C759.146 1365.92 764.69 1360.38 764.69 1353.6V1331.1C764.69 1328.54 763.9 1326.16 762.551 1324.18Z" fill="#000072"/>
</g>
<path d="M800.646 1027.87L774.528 1286.98C773.71 1295.04 769.983 1302.54 764.027 1308.03L752.373 1318.78H243.487L231.833 1308.03C225.872 1302.54 222.144 1295.04 221.332 1286.98L195.213 1027.87C194.719 1022.84 195.064 1017.71 196.625 1012.92C200.334 1001.58 208.947 995.364 220.687 992.431C221.223 992.304 221.74 992.173 222.276 992.068C226.171 991.251 230.157 990.951 234.143 990.951H761.711C766.233 990.951 770.778 991.337 775.168 992.431C786.913 995.364 795.525 1001.58 799.229 1012.92C799.298 1013.09 799.338 1013.28 799.379 1013.45C800.818 1018.1 801.118 1023.03 800.646 1027.87Z" fill="#C0BECC"/>
<g opacity="0.7">
<path d="M238.851 1305.2L212.733 1046.08C212.238 1041.05 212.583 1035.93 214.145 1031.13C217.854 1019.79 226.466 1013.58 238.207 1010.65C238.742 1010.51 239.26 1010.39 239.796 1010.28C243.695 1009.47 247.677 1009.17 251.663 1009.17H779.236C783.753 1009.17 788.297 1009.55 792.687 1010.65C794.994 1011.22 797.136 1011.96 799.189 1012.81C795.461 1001.54 786.872 995.355 775.168 992.431C770.778 991.337 766.233 990.951 761.711 990.951H234.143C230.157 990.951 226.171 991.251 222.276 992.068C221.74 992.173 221.223 992.304 220.687 992.431C208.947 995.364 200.334 1001.58 196.625 1012.92C195.064 1017.71 194.719 1022.84 195.213 1027.87L221.332 1286.98C222.144 1295.04 225.872 1302.54 231.833 1308.02L243.187 1318.5C240.835 1314.45 239.328 1309.93 238.851 1305.2Z" fill="white"/>
</g>
<path d="M752.373 1374.49H243.487C231.964 1374.49 222.594 1365.12 222.594 1353.6V1331.1C222.594 1319.58 231.964 1310.21 243.487 1310.21H752.373C763.891 1310.21 773.261 1319.58 773.261 1331.1V1353.6C773.261 1365.12 763.891 1374.49 752.373 1374.49ZM243.487 1327.35C241.453 1327.35 239.737 1329.07 239.737 1331.1V1353.6C239.737 1355.63 241.453 1357.35 243.487 1357.35H752.373C754.402 1357.35 756.123 1355.63 756.123 1353.6V1331.1C756.123 1329.07 754.402 1327.35 752.373 1327.35H243.487Z" fill="#000072"/>
<path d="M752.373 1327.35H243.487C241.33 1327.35 239.255 1326.54 237.671 1325.08L226.017 1314.32C218.522 1307.4 213.832 1298 212.806 1287.85L186.692 1028.72C186.029 1022.14 186.633 1015.93 188.485 1010.26C192.894 996.794 203.031 988 218.626 984.119C223.334 982.947 228.41 982.38 234.139 982.38H761.72C767.45 982.38 772.525 982.947 777.229 984.119C792.824 988 802.966 996.794 807.37 1010.26C809.226 1015.92 809.826 1022.13 809.163 1028.72L783.049 1287.85C782.028 1298 777.338 1307.4 769.838 1314.32L758.184 1325.08C756.599 1326.54 754.525 1327.35 752.373 1327.35ZM246.837 1310.21H749.022L758.211 1301.72C762.628 1297.65 765.393 1292.11 765.993 1286.13L792.111 1027C792.533 1022.8 792.183 1018.97 791.08 1015.59C788.561 1007.89 782.849 1003.18 773.093 1000.75C769.761 999.927 766.038 999.523 761.72 999.523H234.139C229.821 999.523 226.099 999.927 222.762 1000.75C213.01 1003.18 207.294 1007.89 204.775 1015.59C203.671 1018.97 203.326 1022.81 203.749 1027L229.862 1286.13C230.466 1292.11 233.231 1297.65 237.644 1301.72L246.837 1310.21Z" fill="#000072"/>
<g opacity="0.3">
<path d="M800.646 1027.87L774.528 1286.98C773.71 1295.04 769.983 1302.54 764.027 1308.02L752.373 1318.78H243.487L231.833 1308.02C225.872 1302.54 222.144 1295.04 221.332 1286.98L195.213 1027.87C194.719 1022.83 195.064 1017.71 196.625 1012.91C200.334 1001.58 208.947 995.363 220.687 992.43C221.223 992.303 221.74 992.172 222.276 992.067L232.11 993.416C217.023 996.072 213.705 1016.04 214.258 1031.36C215.847 1075.39 220.024 1119.36 226.793 1162.9C230.866 1189.11 236.436 1216.4 253.365 1236.8C277.727 1266.18 318.909 1273.93 356.599 1279.8C433.991 1291.87 515.992 1303.42 588.349 1273.48C626.789 1257.56 659.785 1230.85 689.567 1201.81C742.535 1150.24 788.756 1085.55 799.379 1013.45C800.818 1018.1 801.118 1023.03 800.646 1027.87Z" fill="#000072"/>
</g>
<g opacity="0.3">
<path d="M541.537 1127.78C530.46 1128.16 519.685 1129.99 509.213 1133.26C505.472 1127.11 504.093 1120.58 505.077 1113.64C516.173 1113.26 526.932 1111.45 537.42 1108.18C541.164 1114.31 542.536 1120.84 541.537 1127.78Z" fill="#000072"/>
<path d="M509.218 1143.97C505.554 1143.97 502.049 1142.09 500.065 1138.83C495.021 1130.55 493.142 1121.57 494.472 1112.14C495.198 1107 499.511 1103.11 504.705 1102.94C514.811 1102.58 524.749 1100.91 534.237 1097.95C538.927 1096.49 544.003 1098.41 546.563 1102.6C551.625 1110.88 553.5 1119.87 552.143 1129.31C551.403 1134.44 547.094 1138.3 541.91 1138.49C531.84 1138.83 521.911 1140.51 512.405 1143.48C511.351 1143.81 510.275 1143.97 509.218 1143.97Z" fill="#000072"/>
<path d="M476.049 1108.9C476.049 1108.9 472.462 1113.26 466.837 1114.57C462.956 1115.5 459.156 1114.75 457.154 1114.19C454.116 1118.14 450.158 1121.61 446.353 1124.44C449.313 1123.76 452.237 1122.99 455.138 1122.09C458.897 1128.22 460.276 1134.75 459.274 1141.68C448.193 1142.07 437.418 1143.9 426.949 1147.16C423.204 1141.01 421.815 1134.49 422.813 1127.55C427.812 1127.37 432.751 1126.86 437.632 1126.11C444.433 1121.91 455.842 1113.66 458.152 1104.39C456.273 1103.97 452.55 1102.83 449.826 1100.18C446.022 1096.49 445.631 1091.29 445.631 1091.29C445.631 1091.29 451.374 1092.08 455.174 1095.77C456.173 1096.74 456.918 1097.81 457.508 1098.87C458.175 1096.63 459.328 1093.98 461.448 1091.68C466.211 1086.5 473.797 1085.08 473.797 1085.08C473.797 1085.08 473.697 1092.03 468.953 1097.21C466.973 1099.35 464.504 1100.84 462.311 1101.86C462.175 1104.79 461.194 1107.64 459.705 1110.32C461.112 1109.39 462.878 1108.52 464.899 1108.04C470.524 1106.71 476.049 1108.9 476.049 1108.9Z" fill="#000072"/>
<path d="M426.95 1157.88C423.286 1157.88 419.781 1155.99 417.797 1152.73C412.735 1144.41 410.856 1135.43 412.209 1126.02C412.949 1120.89 417.257 1117.03 422.442 1116.84C426.133 1116.71 429.874 1116.39 433.823 1115.84C437.841 1113.22 440.878 1110.74 443.085 1108.54C442.84 1108.32 442.596 1108.09 442.354 1107.85C435.971 1101.67 435.063 1093.64 434.945 1092.1C434.704 1088.87 435.93 1085.7 438.291 1083.48C440.647 1081.27 443.884 1080.24 447.089 1080.68C448.011 1080.81 451.243 1081.34 454.975 1083C461.83 1076.58 470.76 1074.74 471.823 1074.55C474.978 1073.95 478.237 1074.81 480.698 1076.88C483.154 1078.95 484.553 1082.01 484.507 1085.23C484.498 1086.12 484.276 1092.6 480.612 1099.21C483.49 1100.56 485.628 1103.13 486.423 1106.23C487.281 1109.54 486.496 1113.07 484.321 1115.71C483.336 1116.91 477.992 1122.97 469.28 1125.01C468.971 1125.08 468.664 1125.15 468.359 1125.21C470.261 1130.96 470.774 1136.99 469.875 1143.21C469.135 1148.34 464.826 1152.21 459.646 1152.39C449.568 1152.74 439.639 1154.43 430.141 1157.39C429.088 1157.72 428.012 1157.88 426.95 1157.88Z" fill="#000072"/>
<path d="M525.933 1164.4C525.933 1164.4 518.288 1165.56 511.764 1162.3C510.647 1161.73 509.685 1161.09 508.781 1160.4C509.372 1166.72 505.708 1172.24 505.708 1172.24C505.708 1172.24 500.101 1167.42 499.102 1160.79C498.376 1155.86 500.414 1151.29 501.513 1149.29C494.926 1142.98 483.108 1139.61 475.853 1138.07C473.247 1138.7 470.66 1139.4 468.09 1140.21C464.331 1134.06 462.952 1127.53 463.954 1120.61C475.035 1120.23 485.809 1118.4 496.278 1115.14C500.019 1121.26 501.398 1127.79 500.414 1134.73C494.73 1134.94 489.123 1135.53 483.594 1136.49C488.479 1137.89 493.904 1139.89 498.589 1142.72C500.219 1141.56 503.452 1139.61 507.451 1139.21C513.212 1138.61 518.329 1141.49 518.329 1141.49C518.329 1141.49 514.075 1145.34 508.314 1145.93C506.216 1146.14 504.237 1145.9 502.53 1145.51C505.018 1147.51 507.079 1149.85 508.409 1152.54C510.879 1152.76 513.762 1153.34 516.486 1154.69C523.014 1157.96 525.933 1164.4 525.933 1164.4Z" fill="#000072"/>
<path d="M505.708 1182.95C503.161 1182.95 500.682 1182.04 498.73 1180.37C497.291 1179.13 490.023 1172.45 488.506 1162.38C488.039 1159.19 488.225 1156.17 488.733 1153.49C485.333 1151.81 480.947 1150.28 475.985 1149.08C474.346 1149.51 472.803 1149.96 471.305 1150.43C466.615 1151.9 461.526 1150 458.956 1145.8C453.876 1137.51 451.987 1128.52 453.354 1119.08C454.094 1113.95 458.402 1110.09 463.582 1109.91C473.661 1109.56 483.59 1107.87 493.087 1104.91C497.781 1103.44 502.862 1105.36 505.422 1109.55C509.072 1115.53 511.07 1121.88 511.392 1128.51C517.707 1129.03 522.506 1131.55 523.586 1132.16C526.587 1133.85 528.594 1136.88 528.975 1140.3C529.307 1143.27 528.385 1146.21 526.474 1148.45C532.512 1153.26 535.327 1159.17 535.694 1159.98C537.079 1163.04 536.952 1166.57 535.349 1169.52C533.747 1172.47 530.855 1174.5 527.536 1175C526.801 1175.11 522.188 1175.73 516.481 1174.84C515.678 1176.53 514.947 1177.69 514.629 1178.16C512.927 1180.72 510.216 1182.43 507.175 1182.84C506.684 1182.91 506.196 1182.95 505.708 1182.95Z" fill="#000072"/>
</g>
<path d="M543.912 1082.68C542.977 1082.68 542.028 1082.83 541.097 1083.15C530.079 1086.98 518.584 1089.15 506.93 1089.6C502.748 1089.76 499.294 1092.92 498.758 1097.08C497.4 1107.64 499.307 1117.74 504.424 1127.09C505.963 1129.9 508.887 1131.55 511.946 1131.55C512.882 1131.55 513.83 1131.4 514.757 1131.08C525.78 1127.24 537.275 1125.07 548.924 1124.62C553.11 1124.46 556.565 1121.3 557.096 1117.15C558.454 1106.58 556.547 1096.48 551.43 1087.13C549.891 1084.32 546.972 1082.68 543.912 1082.68ZM543.912 1091.25C548.161 1099.01 549.722 1107.28 548.593 1116.06C536.035 1116.55 523.818 1118.85 511.942 1122.98C507.692 1115.22 506.132 1106.94 507.261 1098.17C519.822 1097.68 532.039 1095.38 543.912 1091.25Z" fill="white"/>
<path d="M471.786 1053.45C471.199 1053.45 470.614 1053.51 470.029 1053.63C468.845 1053.88 458.267 1056.3 451.171 1064.92C451.134 1064.96 451.099 1065 451.066 1065.05C446.313 1062.28 441.814 1061.52 441.133 1061.41C440.706 1061.35 440.279 1061.32 439.852 1061.32C437.714 1061.32 435.639 1062.12 434.041 1063.59C432.13 1065.35 431.122 1067.88 431.299 1070.48C431.367 1071.46 432.135 1080.25 438.291 1086.93C439.721 1088.48 441.292 1089.75 442.862 1090.79C439.739 1095.58 434.377 1100.84 427.449 1105.82C422.673 1106.58 418.138 1107.04 413.648 1107.21C409.462 1107.38 406.012 1110.54 405.481 1114.69C404.123 1125.26 406.035 1135.36 411.146 1144.7C412.686 1147.51 415.609 1149.16 418.669 1149.16C419.604 1149.16 420.553 1149.01 421.479 1148.69C432.498 1144.85 443.993 1142.68 455.647 1142.23C459.828 1142.07 463.283 1138.91 463.819 1134.76C464.995 1125.58 463.714 1116.76 460.005 1108.48C462.107 1108.44 464.155 1108.16 466.093 1107.64C475.11 1105.25 480.626 1098.07 481.225 1097.25C482.769 1095.16 483.282 1092.48 482.614 1089.97C481.951 1087.45 480.181 1085.38 477.802 1084.32C477.293 1084.1 475.514 1083.36 472.944 1082.76C480.004 1074.15 480.34 1063.34 480.358 1062.13C480.39 1059.53 479.241 1057.05 477.234 1055.4C475.686 1054.13 473.757 1053.45 471.786 1053.45ZM471.786 1062.02C471.786 1062.02 471.677 1070.82 466.293 1077.36C464.046 1080.09 461.258 1081.96 458.748 1083.25C458.598 1086.97 457.49 1090.57 455.797 1093.97C457.408 1092.8 459.397 1091.69 461.694 1091.08C463.183 1090.68 464.663 1090.53 466.062 1090.53C470.651 1090.53 474.329 1092.16 474.329 1092.16C474.329 1092.16 470.261 1097.67 463.891 1099.36C462.398 1099.75 460.913 1099.91 459.519 1099.91C456.8 1099.91 454.408 1099.33 452.914 1098.86C449.459 1103.86 444.969 1108.26 440.674 1111.84C444.02 1110.98 447.343 1110 450.635 1108.86C454.881 1116.62 456.441 1124.89 455.316 1133.67C442.755 1134.16 430.54 1136.46 418.669 1140.59C414.417 1132.83 412.853 1124.55 413.979 1115.78C419.654 1115.56 425.252 1114.91 430.786 1113.95C438.481 1108.64 451.425 1098.18 454.044 1086.47C451.915 1085.92 447.697 1084.49 444.597 1081.12C440.302 1076.46 439.852 1069.89 439.852 1069.89C439.852 1069.89 446.367 1070.88 450.658 1075.54C451.793 1076.77 452.651 1078.13 453.309 1079.47C454.067 1076.63 455.384 1073.29 457.79 1070.36C463.174 1063.83 471.786 1062.02 471.786 1062.02Z" fill="white"/>
<path d="M497.273 1091.48C496.334 1091.48 495.385 1091.64 494.459 1091.96C483.44 1095.79 471.945 1097.96 460.286 1098.41C456.105 1098.57 452.65 1101.73 452.119 1105.88C450.762 1116.45 452.668 1126.55 457.785 1135.9C459.324 1138.71 462.248 1140.36 465.308 1140.36C466.243 1140.36 467.192 1140.2 468.118 1139.88C470.115 1139.18 472.167 1138.54 474.238 1137.94C481.992 1139.97 488.538 1142.74 493.074 1145.87C492.03 1149.55 491.34 1154.1 491.989 1158.97C493.46 1170.03 501.173 1177.68 502.049 1178.52C503.652 1180.05 505.777 1180.89 507.969 1180.89C508.354 1180.89 508.74 1180.87 509.127 1180.81C511.715 1180.46 513.998 1178.95 515.333 1176.7C515.619 1176.22 517.013 1173.8 518.221 1170.17C521.567 1171 524.699 1171.23 527.146 1171.23C529.988 1171.23 531.958 1170.92 532.322 1170.86C534.887 1170.43 537.12 1168.86 538.387 1166.59C539.654 1164.32 539.822 1161.6 538.846 1159.19C538.392 1158.07 534.129 1148.11 524.413 1142.66C526.66 1141.12 528.063 1139.76 528.372 1139.44C530.201 1137.6 531.091 1135.02 530.796 1132.43C530.501 1129.85 529.044 1127.54 526.842 1126.16C526.143 1125.71 519.755 1121.85 511.742 1121.85C511.433 1121.85 511.126 1121.85 510.82 1121.86C511.265 1112.78 509.241 1104.08 504.791 1095.94C503.252 1093.13 500.333 1091.48 497.273 1091.48ZM497.273 1100.05C501.52 1107.82 503.08 1116.09 501.954 1124.86C495.512 1125.12 489.151 1125.86 482.886 1127.07C488.425 1128.85 494.581 1131.39 499.897 1134.98C501.75 1133.5 505.404 1131.03 509.935 1130.52C510.547 1130.45 511.149 1130.41 511.742 1130.41C517.512 1130.42 522.279 1133.41 522.279 1133.41C522.279 1133.41 517.462 1138.28 510.911 1139.03C510.309 1139.1 509.717 1139.13 509.136 1139.13C507.429 1139.13 505.813 1138.86 504.374 1138.49C507.189 1141.04 509.522 1143.98 511.02 1147.39C513.83 1147.68 517.108 1148.4 520.195 1150.13C527.591 1154.26 530.905 1162.41 530.905 1162.41C530.905 1162.41 529.416 1162.66 527.146 1162.66C523.936 1162.66 519.16 1162.16 514.825 1159.74C513.572 1159.04 512.478 1158.21 511.456 1157.34C512.123 1165.33 507.969 1172.32 507.969 1172.32C507.969 1172.32 501.6 1166.24 500.483 1157.84C499.652 1151.58 501.968 1145.82 503.203 1143.28C495.748 1135.29 482.351 1131.04 474.124 1129.08C471.164 1129.87 468.224 1130.77 465.303 1131.78C461.054 1124.02 459.492 1115.75 460.618 1106.97C473.181 1106.49 485.4 1104.18 497.273 1100.05Z" fill="white"/>
<path d="M511.942 1122.98C523.818 1118.85 536.035 1116.55 548.593 1116.06C549.722 1107.28 548.161 1099.01 543.912 1091.25C532.038 1095.38 519.822 1097.68 507.261 1098.17C506.132 1106.94 507.692 1115.22 511.942 1122.98Z" fill="#05CC0A"/>
<path d="M450.635 1108.86C447.343 1110 444.02 1110.98 440.674 1111.84C444.969 1108.26 449.459 1103.86 452.914 1098.86C455.175 1099.57 459.483 1100.53 463.891 1099.36C470.265 1097.67 474.329 1092.16 474.329 1092.16C474.329 1092.16 468.068 1089.39 461.694 1091.08C459.397 1091.69 457.413 1092.8 455.797 1093.97C457.49 1090.56 458.598 1086.97 458.747 1083.25C461.258 1081.96 464.046 1080.09 466.293 1077.36C471.673 1070.82 471.786 1062.02 471.786 1062.02C471.786 1062.02 463.174 1063.83 457.79 1070.36C455.383 1073.29 454.067 1076.63 453.309 1079.47C452.65 1078.13 451.792 1076.77 450.657 1075.54C446.367 1070.88 439.852 1069.89 439.852 1069.89C439.852 1069.89 440.302 1076.46 444.596 1081.12C447.697 1084.49 451.915 1085.92 454.04 1086.47C451.425 1098.18 438.481 1108.64 430.786 1113.95C425.252 1114.91 419.654 1115.56 413.979 1115.78C412.853 1124.55 414.415 1132.82 418.664 1140.59C430.538 1136.46 442.755 1134.16 455.315 1133.67C456.441 1124.89 454.881 1116.62 450.635 1108.86Z" fill="#05CC0A"/>
<path d="M514.825 1159.74C522.22 1163.87 530.905 1162.41 530.905 1162.41C530.905 1162.41 527.591 1154.26 520.195 1150.13C517.108 1148.4 513.83 1147.68 511.02 1147.39C509.522 1143.98 507.188 1141.04 504.374 1138.49C506.303 1138.99 508.55 1139.3 510.911 1139.03C517.462 1138.28 522.279 1133.41 522.279 1133.41C522.279 1133.41 516.486 1129.77 509.935 1130.52C505.404 1131.03 501.75 1133.5 499.897 1134.98C494.581 1131.39 488.425 1128.85 482.886 1127.07C489.151 1125.86 495.512 1125.12 501.954 1124.86C503.08 1116.09 501.519 1107.82 497.273 1100.05C485.4 1104.18 473.181 1106.49 460.618 1106.97C459.492 1115.75 461.054 1124.02 465.303 1131.78C468.224 1130.77 471.162 1129.87 474.119 1129.08C482.35 1131.04 495.748 1135.29 503.202 1143.28C501.967 1145.82 499.652 1151.58 500.483 1157.84C501.6 1166.24 507.969 1172.32 507.969 1172.32C507.969 1172.32 512.123 1165.33 511.456 1157.34C512.477 1158.21 513.572 1159.04 514.825 1159.74Z" fill="#05CC0A"/>
</svg>
