<svg width="200" height="200" viewBox="0 0 200 200" fill="none" xmlns="http://www.w3.org/2000/svg">
<path d="M103.512 199.792C88.8984 199.792 78.9159 200.101 68.9334 199.74C60.0315 199.432 51.0267 199.432 42.2791 197.219C30.9587 194.286 21.2335 188.883 13.6694 179.827C6.3112 170.925 2.60639 160.531 1.31998 149.21C0.428071 140.669 -0.000730555 132.11 0.0335736 123.534C0.0335736 106.605 -0.0692886 89.7269 0.0850801 72.8493C0.187993 64.4619 0.393805 56.0231 1.68021 47.6872C4.0472 32.3017 11.148 19.6435 24.0635 10.7416C31.8849 5.33867 40.6839 2.40566 50.1004 1.42799C70.3742 -0.733173 90.8024 0.244505 111.179 0.0901358C119.858 -0.0470808 128.537 0.0729822 137.216 0.450328C146.478 0.861978 155.637 1.58237 164.436 4.87557C174.11 8.4775 182.017 14.395 188.158 22.628C194.744 31.5299 197.986 41.7182 198.809 52.627C200.764 78.5609 199.735 104.546 199.684 130.48C199.684 138.405 199.426 146.432 197.883 154.304C195.567 165.831 190.782 175.968 182.086 184.201C175.088 190.838 166.752 194.955 157.438 197.168C151.778 198.557 146.015 198.917 140.2 199.277C126.41 200.152 112.62 199.637 103.512 199.792ZM181.468 99.9667C181.468 87.6687 181.623 75.3706 181.108 63.124C180.851 56.9493 180.49 50.826 178.741 44.8571C176.889 38.6823 173.853 33.3309 169.067 28.9056C162.378 22.7309 154.197 20.261 145.449 19.4377C136.084 18.5629 126.667 18.5115 117.251 18.46C101.197 18.4086 85.1421 18.2542 69.0878 18.7173C62.6557 18.9231 56.2753 19.026 49.8947 20.0551C40.7869 21.5988 32.9655 25.5095 27.151 32.9192C22.1082 39.4027 20.153 47.0182 19.3812 54.9939C18.6093 62.7124 18.5578 70.4823 18.5063 78.2007C18.2491 97.6512 18.1975 117.102 18.7636 136.501C18.9694 142.109 19.3297 147.77 20.6676 153.275C22.5715 161.097 26.4307 167.632 32.7083 172.674C38.5743 177.408 45.5723 179.518 52.8791 180.444C60.4946 181.422 68.1616 181.422 75.7772 181.473C95.6393 181.576 115.501 181.834 135.415 181.216C140.509 181.062 145.552 180.753 150.595 179.827C158.519 178.335 165.568 175.144 171.074 169.072C175.911 163.824 178.432 157.546 179.77 150.703C181.365 142.521 181.16 134.185 181.417 125.901C181.623 117.256 181.468 108.611 181.468 99.9667Z" fill="white"/>
<path d="M99.7041 151.371C71.8148 151.526 48.2992 128.473 48.5051 99.555C48.7109 71.3055 71.6605 48.5104 100.219 48.5619C128.468 48.6133 151.263 71.6142 151.418 99.9152C151.52 128.319 128.262 151.783 99.7041 151.371ZM99.9613 133.002C118.125 132.95 132.996 118.182 132.945 99.9666C132.842 81.5968 118.434 67.1376 99.9613 67.0346C81.7972 66.8803 66.7722 81.957 66.978 100.172C67.1838 118.491 81.6943 132.847 99.9613 133.002Z" fill="white"/>
<path d="M165.311 46.8124C165.311 53.5532 159.908 58.9561 153.219 58.9561C146.581 58.9561 140.921 53.3988 140.972 46.8639C140.972 40.0202 146.427 34.5658 153.167 34.6173C160.114 34.6173 165.311 39.8144 165.311 46.8124Z" fill="white"/>
</svg>
