<svg width="200" height="201" viewBox="0 0 200 201" fill="none" xmlns="http://www.w3.org/2000/svg">
<path d="M0 102.071V200.054H46.689V94.1839V66.7231H0V102.071Z" fill="white"/>
<path d="M23.3157 0C10.4777 0 0 10.4777 0 23.3733C0 36.2689 10.4777 46.689 23.3157 46.689C36.2113 46.689 46.689 36.2689 46.689 23.3733C46.689 10.4777 36.2113 0 23.3157 0Z" fill="white"/>
<path d="M199.018 107.655C195.852 82.4972 184.281 66.7231 150.314 66.7231C130.165 66.7231 116.636 74.2072 111.11 84.6848H110.534V66.7231H73.3438V92.2841V200.054H112.203V133.965C112.203 116.521 115.485 99.653 137.073 99.653C158.317 99.653 159.986 119.572 159.986 135.058V200.054H199.997V126.768C200.035 119.898 199.709 113.527 199.018 107.655Z" fill="white"/>
</svg>
