<svg width="199" height="94" viewBox="0 0 199 94" fill="none" xmlns="http://www.w3.org/2000/svg">
<path d="M0.5 92V1.8125H19.375V92H0.5ZM28.625 92L60.125 1.8125H82.3125L113.75 92H93.9375L87.125 70.125H55.25L48.4375 92H28.625ZM71 19.3125L59.625 56H82.75L71.375 19.3125H71ZM158.75 93.5625C132.375 93.5625 115.812 75.9375 115.812 46.875V46.8125C115.812 17.75 132.438 0.25 158.75 0.25C180.625 0.25 196.312 14.0625 198.062 33.1875L198.125 33.75H179.75L179.5 32.6875C177.375 22.75 170 16.25 158.75 16.25C144.312 16.25 135.062 27.875 135.062 46.75V46.8125C135.062 65.8125 144.312 77.5625 158.75 77.5625C169.625 77.5625 177.25 71.3125 179.688 60.625L179.812 60H198.188L198.125 60.6875C196.375 79.875 180.562 93.5625 158.75 93.5625Z" fill="white"/>
</svg>
