<svg width="141" height="55" viewBox="0 0 141 55" fill="none" xmlns="http://www.w3.org/2000/svg">
<path d="M-0.00830078 54V1.15576H13.4316V54H-0.00830078ZM28.522 54L46.3198 1.15576H62.7627L80.5605 54H66.4614L63.1655 42.3911H45.917L42.6211 54H28.522ZM54.4131 12.6548L48.7002 32.7231H60.3823L54.6694 12.6548H54.4131ZM116.745 54.9521C100.888 54.9521 91.0366 44.8081 91.0366 27.5596V27.5229C91.0366 10.2744 100.961 0.203613 116.745 0.203613C130.551 0.203613 140.109 9.06592 140.585 20.8945V21.2607H127.658L127.584 20.7114C126.742 15.2183 122.897 11.3364 116.745 11.3364C109.384 11.3364 104.733 17.3789 104.733 27.4863V27.5229C104.733 37.7402 109.42 43.8193 116.781 43.8193C122.604 43.8193 126.742 40.1938 127.658 34.2979L127.731 33.895H140.658L140.622 34.2979C140.146 46.1265 130.478 54.9521 116.745 54.9521Z" fill="white"/>
</svg>
